<?xml version="1.0" standalone="no"?>
<!DOCTYPE svg PUBLIC "-//W3C//DTD SVG 20010904//EN"
 "http://www.w3.org/TR/2001/REC-SVG-20010904/DTD/svg10.dtd">
<svg version="1.0" xmlns="http://www.w3.org/2000/svg"
 width="800.000000pt" height="800.000000pt" viewBox="0 0 800.000000 800.000000"
 preserveAspectRatio="xMidYMid meet">

<g transform="translate(0.000000,800.000000) scale(0.100000,-0.100000)"
fill="#000000" stroke="none">
<path d="M2105 4983 c-44 -23 -65 -44 -86 -85 -18 -35 -19 -59 -17 -300 l3
-262 28 -16 c24 -13 30 -13 55 0 l27 16 6 249 c3 138 6 251 7 252 1 1 9 9 18
17 14 14 105 16 853 16 799 0 839 -1 854 -18 15 -16 17 -49 17 -256 l0 -237
25 -24 c29 -30 58 -32 85 -5 20 20 21 30 18 284 l-3 263 -28 40 c-15 22 -45
49 -66 61 l-39 22 -863 0 c-769 -1 -867 -3 -894 -17z"/>
<path d="M2207 4183 c-4 -3 -7 -126 -7 -272 0 -298 -3 -311 -63 -311 -18 0
-38 4 -46 9 -28 18 -41 1 -41 -54 0 -71 12 -80 116 -80 95 0 124 14 158 81 19
36 21 61 24 311 3 150 1 284 -2 298 -6 23 -10 25 -70 25 -34 0 -66 -3 -69 -7z"/>
<path d="M2599 4007 c-87 -20 -109 -38 -109 -93 0 -28 5 -47 13 -50 7 -2 38 7
68 21 106 49 190 27 193 -51 l1 -39 -90 -6 c-152 -11 -215 -59 -215 -164 0
-104 66 -158 186 -153 59 3 77 8 107 31 l37 28 0 -26 c0 -25 1 -26 58 -23 l57
3 3 160 c4 247 -12 315 -86 350 -44 22 -154 27 -223 12z m159 -306 c8 -5 12
-23 10 -47 -8 -94 -168 -117 -168 -23 0 31 21 57 53 64 12 2 31 6 42 8 34 8
49 7 63 -2z"/>
<path d="M3649 4007 c-87 -20 -109 -38 -109 -93 0 -28 5 -47 13 -50 7 -2 38 7
68 21 108 50 205 22 197 -58 l-3 -32 -91 -6 c-156 -11 -218 -62 -211 -172 6
-104 64 -150 183 -145 59 3 77 8 107 31 l37 28 0 -26 c0 -25 1 -26 58 -23 l57
3 0 210 c0 201 -1 212 -23 246 -12 20 -38 44 -57 54 -47 22 -156 28 -226 12z
m159 -306 c8 -5 12 -23 10 -47 -8 -94 -168 -117 -168 -23 0 31 21 57 53 64 12
2 31 6 42 8 34 8 49 7 63 -2z"/>
<path d="M2973 3994 c-6 -17 130 -454 154 -492 13 -21 20 -23 101 -20 l87 3
84 248 c45 136 80 254 77 262 -6 17 -101 21 -124 6 -7 -4 -37 -88 -67 -186
-30 -97 -56 -179 -57 -181 -2 -1 -28 77 -58 174 -29 97 -58 183 -63 190 -15
19 -126 16 -134 -4z"/>
<path d="M2016 3294 c-24 -23 -22 -144 3 -192 22 -42 43 -63 88 -86 29 -14
119 -16 889 -16 854 0 858 0 902 21 66 32 96 85 101 176 4 87 -11 113 -65 113
-44 0 -64 -30 -64 -96 0 -91 77 -84 -871 -84 -459 0 -839 4 -846 8 -18 11 -33
58 -33 102 0 46 -21 70 -60 70 -16 0 -36 -7 -44 -16z"/>
</g>
</svg>
